<svg id="visual" viewBox="0 0 960 540" width="960" height="540" xmlns="http://www.w3.org/2000/svg" xmlns:xlink="http://www.w3.org/1999/xlink" version="1.1"><path d="M0 105L22.8 97.7C45.7 90.3 91.3 75.7 137 72.5C182.7 69.3 228.3 77.7 274 81C319.7 84.3 365.3 82.7 411.2 79C457 75.3 503 69.7 548.8 73.3C594.7 77 640.3 90 686 93.2C731.7 96.3 777.3 89.7 823 88.3C868.7 87 914.3 91 937.2 93L960 95L960 0L937.2 0C914.3 0 868.7 0 823 0C777.3 0 731.7 0 686 0C640.3 0 594.7 0 548.8 0C503 0 457 0 411.2 0C365.3 0 319.7 0 274 0C228.3 0 182.7 0 137 0C91.3 0 45.7 0 22.8 0L0 0Z" fill="#a1a8b1"></path><path d="M0 41L22.8 46.7C45.7 52.3 91.3 63.7 137 62.2C182.7 60.7 228.3 46.3 274 45.5C319.7 44.7 365.3 57.3 411.2 60C457 62.7 503 55.3 548.8 54C594.7 52.7 640.3 57.3 686 55C731.7 52.7 777.3 43.3 823 40C868.7 36.7 914.3 39.3 937.2 40.7L960 42L960 0L937.2 0C914.3 0 868.7 0 823 0C777.3 0 731.7 0 686 0C640.3 0 594.7 0 548.8 0C503 0 457 0 411.2 0C365.3 0 319.7 0 274 0C228.3 0 182.7 0 137 0C91.3 0 45.7 0 22.8 0L0 0Z" fill="#687586"></path><path d="M0 19L22.8 18.7C45.7 18.3 91.3 17.7 137 21C182.7 24.3 228.3 31.7 274 32.8C319.7 34 365.3 29 411.2 26.2C457 23.3 503 22.7 548.8 27C594.7 31.3 640.3 40.7 686 39.8C731.7 39 777.3 28 823 26.8C868.7 25.7 914.3 34.3 937.2 38.7L960 43L960 0L937.2 0C914.3 0 868.7 0 823 0C777.3 0 731.7 0 686 0C640.3 0 594.7 0 548.8 0C503 0 457 0 411.2 0C365.3 0 319.7 0 274 0C228.3 0 182.7 0 137 0C91.3 0 45.7 0 22.8 0L0 0Z" fill="#30475e"></path></svg>