<svg id="visual" viewBox="0 0 960 540" width="960" height="540" xmlns="http://www.w3.org/2000/svg" xmlns:xlink="http://www.w3.org/1999/xlink" version="1.1"><rect width="960" height="540" fill="#222831"></rect><g><g transform="translate(738 504)"><path d="M88.4 -26.8C101.7 12 90.6 60.7 60.9 81.8C31.3 102.8 -16.9 96.2 -49.9 71.5C-82.8 46.9 -100.6 4.2 -89.8 -31.3C-78.9 -66.8 -39.5 -95.2 -0.9 -94.9C37.6 -94.6 75.2 -65.6 88.4 -26.8Z" stroke="#F05454" fill="none" stroke-width="20"></path></g><g transform="translate(116 317)"><path d="M76.5 -25.8C84.8 0.4 67 34.1 40 53.3C13 72.5 -23.3 77.3 -48.2 60.5C-73.2 43.8 -86.8 5.6 -76.8 -23C-66.9 -51.5 -33.5 -70.5 0.4 -70.6C34.2 -70.7 68.3 -52 76.5 -25.8Z" stroke="#F05454" fill="none" stroke-width="20"></path></g><g transform="translate(446 325)"><path d="M50.8 -17.9C57.4 3.9 48.6 29.3 29.5 43.9C10.4 58.6 -18.9 62.5 -35.5 50.1C-52.2 37.8 -56.1 9.1 -48.1 -14.6C-40 -38.4 -20 -57.3 1 -57.6C22.1 -58 44.2 -39.7 50.8 -17.9Z" stroke="#F05454" fill="none" stroke-width="20"></path></g><g transform="translate(738 5)"><path d="M43.9 -12.6C50.3 5.2 44.1 28.6 29.1 39.4C14 50.2 -9.8 48.2 -25.1 36.6C-40.3 25 -47.1 3.8 -41.5 -13C-35.8 -29.8 -17.9 -42.1 0.4 -42.3C18.8 -42.4 37.6 -30.4 43.9 -12.6Z" stroke="#F05454" fill="none" stroke-width="20"></path></g><g transform="translate(355 25)"><path d="M56.3 -18.4C64 5.2 54.9 34.1 34.8 49C14.7 63.8 -16.4 64.6 -38.6 49.3C-60.9 34 -74.3 2.8 -66.4 -21.2C-58.5 -45.1 -29.3 -61.7 -2.4 -60.9C24.4 -60.1 48.7 -41.9 56.3 -18.4Z" stroke="#F05454" fill="none" stroke-width="20"></path></g><g transform="translate(917 250)"><path d="M49.4 -15.5C56.7 6.3 50.2 33.2 32.4 46.5C14.7 59.8 -14.2 59.5 -33.6 45.6C-53 31.6 -63 3.9 -55.8 -17.7C-48.6 -39.4 -24.3 -55.1 -1.6 -54.6C21.1 -54.1 42.2 -37.3 49.4 -15.5Z" stroke="#F05454" fill="none" stroke-width="20"></path></g></g></svg>