<svg id="visual" viewBox="0 0 960 540" width="960" height="540" xmlns="http://www.w3.org/2000/svg" xmlns:xlink="http://www.w3.org/1999/xlink" version="1.1"><path d="M0 388L26.7 387.5C53.3 387 106.7 386 160 382.5C213.3 379 266.7 373 320 379.5C373.3 386 426.7 405 480 422C533.3 439 586.7 454 640 450.7C693.3 447.3 746.7 425.7 800 427C853.3 428.3 906.7 452.7 933.3 464.8L960 477L960 541L933.3 541C906.7 541 853.3 541 800 541C746.7 541 693.3 541 640 541C586.7 541 533.3 541 480 541C426.7 541 373.3 541 320 541C266.7 541 213.3 541 160 541C106.7 541 53.3 541 26.7 541L0 541Z" fill="#30475E" stroke-linecap="round" stroke-linejoin="miter"></path></svg>